<svg width="360" height="360" viewBox="0 0 360 360" fill="none" xmlns="http://www.w3.org/2000/svg">
<rect width="360" height="360" fill="#070707"/>
<path d="M43 280.882V277.772L50.775 274.973C54.9217 273.314 58.1353 271.345 60.416 269.064C62.6967 266.576 64.5627 263.155 66.014 258.801L130.08 75H156.515L219.648 260.045C221.307 264.606 223.173 268.131 225.246 270.619C227.319 272.9 230.533 274.869 234.887 276.528L238.619 277.772V280.882H159.625V277.772L164.29 276.217C168.644 274.558 171.236 272.278 172.065 269.375C173.102 266.265 172.998 262.637 171.754 258.49L157.137 213.706H88.095L73.167 257.557C71.7157 262.118 71.1973 265.747 71.612 268.442C72.234 271.137 74.722 273.314 79.076 274.973L85.918 277.772V280.882H43ZM90.272 207.486H155.271L123.86 110.765L90.272 207.486Z" fill="white"/>
<path d="M289.433 285.547C281.969 285.547 275.646 282.955 270.462 277.772C265.279 272.589 262.687 266.369 262.687 259.112C262.687 251.855 265.279 245.532 270.462 240.141C275.646 234.75 281.969 232.055 289.433 232.055C296.897 232.055 303.221 234.75 308.404 240.141C313.588 245.532 316.18 251.855 316.18 259.112C316.18 266.369 313.588 272.589 308.404 277.772C303.221 282.955 296.897 285.547 289.433 285.547Z" fill="white"/>
</svg>
